<svg xmlns="http://www.w3.org/2000/svg" viewBox="0 0 49 48" fill="none" class="css-1sm7ur8"><circle cx="24.334" cy="24" r="24" fill="#14151A"></circle><path d="M18.356 13.13l-3.615-2.101 9.833-5.749 9.862 5.749-3.615 2.1-6.247-3.618-6.218 3.619zm18.654 3.618v4.232l3.615-2.101v-4.232l-3.615-2.13-3.615 2.101 3.615 2.13zm-16.051-2.1l3.615 2.1 3.615-2.1-3.615-2.13-3.615 2.13zm13.477 3.618l-3.615-2.101-6.247 3.618-6.218-3.618-3.615 2.1v4.232l6.218 3.619v7.237l3.615 2.1 3.615-2.1v-7.237l6.247-3.619v-4.231zm2.574 12.986l-6.218 3.618v4.232l9.862-5.75V21.885l-3.644 2.13v7.238zm-6.218.613l3.615-2.102v-4.26l-3.615 2.101v4.26zm-9.833 4.523v4.23l3.615 2.102 3.615-2.101v-4.231l-3.615 2.1-3.615-2.1zM8.494 18.878l3.615 2.102v-4.232l3.615-2.1-3.586-2.13-3.615 2.1v4.26h-.029zm3.644 5.137l-3.615-2.102v11.469l9.862 5.749v-4.232l-6.247-3.647v-7.237zm6.218 3.618l-3.615-2.1v4.23l3.615 2.101v-4.23z" fill="#F0B90B"></path></svg>